<svg version="1.1" id="Layer_1" xmlns="http://www.w3.org/2000/svg" xmlns:xlink="http://www.w3.org/1999/xlink" x="0px" y="0px"
	 width="100%" viewBox="0 0 376 376" enable-background="new 0 0 376 376" xml:space="preserve">
<!-- <path fill="#F8F8F8" opacity="1.000000" stroke="none" 
	d="
M211.000000,377.000000 
	C140.666672,377.000000 70.833359,377.000000 1.000028,377.000000 
	C1.000019,251.666702 1.000019,126.333405 1.000009,1.000079 
	C126.333275,1.000052 251.666550,1.000052 376.999878,1.000026 
	C376.999908,126.333252 376.999908,251.666504 376.999939,376.999878 
	C321.833344,377.000000 266.666656,377.000000 211.000000,377.000000 
M33.821583,261.094604 
	C35.222698,261.044006 36.623810,260.993439 38.952362,261.059418 
	C48.292519,261.020752 57.632675,260.982117 67.651222,261.093079 
	C68.108665,261.041748 68.566109,260.990448 69.803307,261.053558 
	C70.843323,260.972961 71.883339,260.892365 73.565796,260.661407 
	C112.289795,222.410294 151.013794,184.159180 189.953613,145.694885 
	C190.451141,146.159332 191.678635,147.236526 192.829803,148.389938 
	C217.541489,173.149979 242.236221,197.926956 266.952911,222.682007 
	C279.646210,235.395035 292.375702,248.071945 305.981384,261.026337 
	C318.312836,260.999512 330.644257,260.972656 343.647919,261.094238 
	C344.101349,261.044159 344.554779,260.994049 345.631927,261.073395 
	C346.237915,260.957794 346.843903,260.842163 347.449890,260.726562 
	C346.973816,260.146179 346.497742,259.565796 345.757416,258.372131 
	C293.411041,206.416901 241.064697,154.461685 188.505463,102.295174 
	C187.689590,103.067299 186.346207,104.277039 185.070801,105.554649 
	C146.112839,144.580414 107.136200,183.587585 68.224472,222.659424 
	C56.360680,234.572052 44.678387,246.665451 32.330132,259.016235 
	C31.991177,259.587921 31.652222,260.159607 31.313265,260.731293 
	C31.872932,260.800232 32.432598,260.869141 33.821583,261.094604 
M312.981689,184.980469 
	C326.555115,184.980469 340.128540,184.980469 353.701965,184.980469 
	C353.888733,184.582962 354.075531,184.185471 354.262299,183.787964 
	C353.568451,183.379288 352.874634,182.970612 351.922180,181.973999 
	C324.531219,154.482742 297.172607,126.959145 269.737457,99.512054 
	C252.665222,82.432426 235.920761,64.989929 218.219009,48.584518 
	C199.744064,31.462551 176.299103,32.646759 158.384308,50.467590 
	C128.625870,80.069939 98.905464,109.710625 69.214684,139.380829 
	C54.731995,153.853470 40.352283,168.429169 25.310221,183.280029 
	C25.802572,183.863190 26.291180,184.950531 26.787838,184.954224 
	C34.843319,185.014038 42.899822,184.936432 51.719940,185.034088 
	C52.492603,184.987228 53.265263,184.940369 54.896774,185.012573 
	C56.916840,184.971878 58.936901,184.931168 61.791813,185.036362 
	C63.200443,184.995804 64.609077,184.955246 66.499565,184.990555 
	C66.499565,184.990555 66.956673,184.820267 67.603760,184.688995 
	C104.871521,147.282455 142.128281,109.864944 179.415985,72.478310 
	C187.235016,64.638527 191.363495,64.669250 199.143082,72.457413 
	C226.573273,99.917931 253.955490,127.426514 281.429077,154.843521 
	C291.538239,164.931854 301.850891,174.816330 312.981689,184.980469 
M219.643112,218.822647 
	C205.025482,211.783752 189.737869,209.890259 173.966080,213.568588 
	C141.904861,221.045975 119.702271,247.226471 116.890358,280.476013 
	C115.014023,302.662842 100.346550,317.695862 78.753372,319.563416 
	C59.664265,321.214386 41.253784,307.870300 36.367435,288.744354 
	C35.517719,285.418396 35.047691,281.995483 34.396175,278.585297 
	C25.075644,278.585297 15.995886,278.585297 6.218928,278.585297 
	C6.676372,283.823517 6.671606,288.831238 7.605076,293.657501 
	C15.085409,332.332520 52.034019,355.816254 91.421883,347.447815 
	C123.134567,340.710052 144.381577,314.755768 146.902802,280.859192 
	C148.433884,260.274567 164.922760,243.424591 185.037338,241.889511 
	C206.057648,240.285294 226.132629,254.460739 230.595047,274.356567 
	C231.644485,279.035553 231.464127,283.977081 232.279236,288.724030 
	C237.127563,316.959534 252.997910,336.577820 280.136780,345.409698 
	C306.958282,354.138306 331.607330,348.535309 351.984528,328.598541 
	C365.785370,315.095978 372.272217,298.235046 371.730591,278.640137 
	C362.077240,278.640137 352.856262,278.640137 343.620911,278.640137 
	C343.035583,282.065735 342.628662,285.196228 341.954803,288.268188 
	C337.810699,307.160278 319.869751,320.973999 301.190643,319.719849 
	C280.083191,318.302612 263.487335,302.626495 261.919556,282.742584 
	C259.651154,253.973053 246.261261,232.424484 219.643112,218.822647 
M321.814087,44.782352 
	C314.253143,36.415607 304.069855,34.387917 294.864166,39.416119 
	C286.366943,44.057346 281.958374,54.034019 284.651276,63.151695 
	C287.252045,71.957222 293.202911,77.351540 302.351898,78.478432 
	C310.788605,79.517586 317.754639,76.350754 322.467621,69.218063 
	C327.674103,61.338387 327.288605,53.288322 321.814087,44.782352 
z"/> -->
<path fill="#F8F8F8" opacity="1.000000" stroke="none" 
	d="
M219.997894,218.945221 
	C246.261261,232.424484 259.651154,253.973053 261.919556,282.742584 
	C263.487335,302.626495 280.083191,318.302612 301.190643,319.719849 
	C319.869751,320.973999 337.810699,307.160278 341.954803,288.268188 
	C342.628662,285.196228 343.035583,282.065735 343.620911,278.640137 
	C352.856262,278.640137 362.077240,278.640137 371.730591,278.640137 
	C372.272217,298.235046 365.785370,315.095978 351.984528,328.598541 
	C331.607330,348.535309 306.958282,354.138306 280.136780,345.409698 
	C252.997910,336.577820 237.127563,316.959534 232.279236,288.724030 
	C231.464127,283.977081 231.644485,279.035553 230.595047,274.356567 
	C226.132629,254.460739 206.057648,240.285294 185.037338,241.889511 
	C164.922760,243.424591 148.433884,260.274567 146.902802,280.859192 
	C144.381577,314.755768 123.134567,340.710052 91.421883,347.447815 
	C52.034019,355.816254 15.085409,332.332520 7.605076,293.657501 
	C6.671606,288.831238 6.676372,283.823517 6.218928,278.585297 
	C15.995886,278.585297 25.075644,278.585297 34.396175,278.585297 
	C35.047691,281.995483 35.517719,285.418396 36.367435,288.744354 
	C41.253784,307.870300 59.664265,321.214386 78.753372,319.563416 
	C100.346550,317.695862 115.014023,302.662842 116.890358,280.476013 
	C119.702271,247.226471 141.904861,221.045975 173.966080,213.568588 
	C189.737869,209.890259 205.025482,211.783752 219.997894,218.945221 
z"/>
<path fill="#F8F8F8" opacity="1.000000" stroke="none" 
	d="
M25.925961,182.958221 
	C40.352283,168.429169 54.731995,153.853470 69.214684,139.380829 
	C98.905464,109.710625 128.625870,80.069939 158.384308,50.467590 
	C176.299103,32.646759 199.744064,31.462551 218.219009,48.584518 
	C235.920761,64.989929 252.665222,82.432426 269.737457,99.512054 
	C297.172607,126.959145 324.531219,154.482742 351.791016,182.633911 
	C340.891418,183.529434 330.121948,183.727219 319.355438,184.029434 
	C316.921936,184.097748 314.498688,184.529404 312.070709,184.793793 
	C301.850891,174.816330 291.538239,164.931854 281.429077,154.843521 
	C253.955490,127.426514 226.573273,99.917931 199.143082,72.457413 
	C191.363495,64.669250 187.235016,64.638527 179.415985,72.478310 
	C142.128281,109.864944 104.871521,147.282455 67.181458,184.618530 
	C66.512009,184.670258 66.264854,184.792465 66.017708,184.914673 
	C64.609077,184.955246 63.200443,184.995804 61.106735,184.708252 
	C58.293751,184.551254 56.165836,184.722382 54.037926,184.893509 
	C53.265263,184.940369 52.492603,184.987228 51.029068,184.691132 
	C47.231949,184.232101 44.122360,184.172119 41.020218,183.987274 
	C35.986233,183.687317 30.957125,183.305496 25.925961,182.958221 
z"/>
<path fill="#F8F8F8" opacity="1.000000" stroke="none" 
	d="
M345.008209,260.943939 
	C344.554779,260.994049 344.101349,261.044159 343.010315,260.736145 
	C333.665649,260.252106 324.958496,260.036255 316.251526,260.042328 
	C312.530457,260.044891 308.809723,260.510132 305.088837,260.765167 
	C292.375702,248.071945 279.646210,235.395035 266.952911,222.682007 
	C242.236221,197.926956 217.541489,173.149979 192.829803,148.389938 
	C191.678635,147.236526 190.451141,146.159332 189.953613,145.694885 
	C151.013794,184.159180 112.289795,222.410294 73.020172,260.510986 
	C71.324219,260.553436 70.173882,260.746307 69.023552,260.939148 
	C68.566109,260.990448 68.108665,261.041748 67.010727,260.734680 
	C60.289845,260.251221 54.208298,259.997253 48.129539,260.052094 
	C44.758930,260.082489 41.392979,260.628998 38.024925,260.942871 
	C36.623810,260.993439 35.222698,261.044006 33.406006,260.639282 
	C32.964603,259.681335 32.938786,259.178680 32.912968,258.676056 
	C44.678387,246.665451 56.360680,234.572052 68.224472,222.659424 
	C107.136200,183.587585 146.112839,144.580414 185.070801,105.554649 
	C186.346207,104.277039 187.689590,103.067299 188.505463,102.295174 
	C241.064697,154.461685 293.411041,206.416901 345.647247,258.843384 
	C345.360779,259.857727 345.184509,260.400818 345.008209,260.943939 
z"/>
<path fill="#F8F8F8" opacity="1.000000" stroke="none" 
	d="
M322.015869,45.091595 
	C327.288605,53.288322 327.674103,61.338387 322.467621,69.218063 
	C317.754639,76.350754 310.788605,79.517586 302.351898,78.478432 
	C293.202911,77.351540 287.252045,71.957222 284.651276,63.151695 
	C281.958374,54.034019 286.366943,44.057346 294.864166,39.416119 
	C304.069855,34.387917 314.253143,36.415607 322.015869,45.091595 
z"/>
<path fill="#F8F8F8" opacity="1.000000" stroke="none" 
	d="
M312.526184,184.887131 
	C314.498688,184.529404 316.921936,184.097748 319.355438,184.029434 
	C330.121948,183.727219 340.891418,183.529434 351.920288,182.927887 
	C352.874634,182.970612 353.568451,183.379288 354.262299,183.787964 
	C354.075531,184.185471 353.888733,184.582962 353.701965,184.980469 
	C340.128540,184.980469 326.555115,184.980469 312.526184,184.887131 
z"/>
<path fill="#F8F8F8" opacity="1.000000" stroke="none" 
	d="
M305.535095,260.895752 
	C308.809723,260.510132 312.530457,260.044891 316.251526,260.042328 
	C324.958496,260.036255 333.665649,260.252106 342.674194,260.661926 
	C330.644257,260.972656 318.312836,260.999512 305.535095,260.895752 
z"/>
<path fill="#F8F8F8" opacity="1.000000" stroke="none" 
	d="
M25.618090,183.119141 
	C30.957125,183.305496 35.986233,183.687317 41.020218,183.987274 
	C44.122360,184.172119 47.231949,184.232101 50.647144,184.619034 
	C42.899822,184.936432 34.843319,185.014038 26.787838,184.954224 
	C26.291180,184.950531 25.802572,183.863190 25.618090,183.119141 
z"/>
<path fill="#F8F8F8" opacity="1.000000" stroke="none" 
	d="
M38.488644,261.001160 
	C41.392979,260.628998 44.758930,260.082489 48.129539,260.052094 
	C54.208298,259.997253 60.289845,260.251221 66.671524,260.659851 
	C57.632675,260.982117 48.292519,261.020752 38.488644,261.001160 
z"/>
<path fill="#F8F8F8" opacity="1.000000" stroke="none" 
	d="
M54.467350,184.953033 
	C56.165836,184.722382 58.293751,184.551254 60.689316,184.635300 
	C58.936901,184.931168 56.916840,184.971878 54.467350,184.953033 
z"/>
<path fill="#F8F8F8" opacity="1.000000" stroke="none" 
	d="
M345.320068,261.008667 
	C345.184509,260.400818 345.360779,259.857727 345.779388,259.149994 
	C346.497742,259.565796 346.973816,260.146179 347.449890,260.726562 
	C346.843903,260.842163 346.237915,260.957794 345.320068,261.008667 
z"/>
<path fill="#F8F8F8" opacity="1.000000" stroke="none" 
	d="
M69.413429,260.996338 
	C70.173882,260.746307 71.324219,260.553436 72.698952,260.586182 
	C71.883339,260.892365 70.843323,260.972961 69.413429,260.996338 
z"/>
<path fill="#F8F8F8" opacity="1.000000" stroke="none" 
	d="
M32.621548,258.846130 
	C32.938786,259.178680 32.964603,259.681335 32.991348,260.561005 
	C32.432598,260.869141 31.872932,260.800232 31.313267,260.731293 
	C31.652222,260.159607 31.991177,259.587921 32.621548,258.846130 
z"/>
<path fill="#F8F8F8" opacity="1.000000" stroke="none" 
	d="
M66.258636,184.952621 
	C66.264854,184.792465 66.512009,184.670258 66.857918,184.684158 
	C66.956673,184.820267 66.499565,184.990555 66.258636,184.952621 
z"/>
</svg>