<svg version="1.1" id="Layer_1" xmlns="http://www.w3.org/2000/svg" xmlns:xlink="http://www.w3.org/1999/xlink" x="0px" y="0px"
	 width="100%" viewBox="0 0 494 494" enable-background="new 0 0 494 494" xml:space="preserve">
<path fill="#000001" opacity="1.000000" stroke="none" 
	d="
M260.000000,495.000000 
	C173.333359,495.000000 87.166710,495.000000 1.000046,495.000000 
	C1.000031,330.333405 1.000031,165.666794 1.000015,1.000135 
	C165.666565,1.000090 330.333130,1.000090 494.999756,1.000045 
	C494.999847,165.666519 494.999847,330.333038 494.999939,494.999786 
	C416.833344,495.000000 338.666656,495.000000 260.000000,495.000000 
M84.349937,245.163437 
	C87.029259,244.690155 90.327126,245.039566 92.266144,243.581665 
	C97.120621,239.931747 101.529770,235.631012 105.812904,231.290695 
	C118.665672,218.266388 131.348206,205.074326 144.142731,191.992264 
	C161.003967,174.752136 177.856461,157.502884 194.810791,140.354507 
	C208.600494,126.406990 222.428360,112.493645 236.447067,98.777504 
	C244.051514,91.337189 253.741028,91.312683 260.901459,98.260674 
	C265.670135,102.887863 270.321808,107.635742 275.020538,112.334900 
	C296.439423,133.755707 317.856049,155.178833 339.274384,176.600174 
	C347.349152,184.676041 355.493134,192.684067 363.481262,200.844681 
	C369.916290,207.418655 376.023010,214.317261 382.533081,220.813583 
	C389.770966,228.036133 397.474640,234.797073 404.599640,242.124466 
	C406.788086,244.375092 408.735260,245.248581 411.744110,245.225311 
	C427.572906,245.102921 443.403229,245.178650 459.232971,245.158493 
	C460.793182,245.156509 462.353149,244.970581 464.890259,244.807037 
	C463.282043,242.989349 462.393402,241.878464 461.396759,240.874817 
	C450.889771,230.293732 440.383514,219.711731 429.842438,209.164597 
	C403.579681,182.886810 377.298370,156.627579 351.025574,130.359848 
	C334.560181,113.897636 318.153687,97.375870 301.602600,81.000282 
	C295.472748,74.935440 289.350525,68.774864 282.603638,63.444149 
	C274.283752,56.870586 264.634766,53.650780 253.777069,52.930237 
	C242.991623,52.214493 232.298218,52.870754 223.486847,58.549149 
	C213.334457,65.091736 204.274139,73.501579 195.399796,81.806038 
	C186.568329,90.070351 178.676300,99.329338 170.145370,107.926956 
	C163.517227,114.606903 156.389908,120.791237 149.754089,127.463966 
	C140.409088,136.860962 131.427032,146.618744 122.088188,156.022034 
	C100.487228,177.772018 78.756546,199.393143 57.096733,221.084747 
	C49.408165,228.784607 41.772343,236.537125 33.222740,245.163284 
	C50.631573,245.163284 67.010445,245.163284 84.349937,245.163437 
M101.720200,341.664185 
	C108.561058,334.751740 115.383049,327.820465 122.246788,320.930817 
	C135.754776,307.371796 149.281708,293.831665 162.809067,280.291992 
	C170.526016,272.568024 178.238754,264.839630 185.991516,257.151672 
	C192.546494,250.651520 199.209412,244.259628 205.730865,237.726273 
	C219.236313,224.196167 232.755539,210.677887 246.086502,196.977066 
	C248.880035,194.106064 250.594803,194.739883 252.964188,197.223404 
	C257.791138,202.282898 262.836914,207.132797 267.739136,212.121506 
	C279.401672,223.989868 290.994690,235.926788 302.688232,247.764420 
	C314.049500,259.265686 325.553864,270.625793 336.890869,282.150696 
	C342.646698,288.001892 348.064209,294.186218 353.828247,300.028931 
	C361.836456,308.146423 370.053558,316.057404 378.129150,324.108978 
	C383.384888,329.348999 388.433563,334.802765 393.819183,339.902893 
	C395.534363,341.527161 397.981812,343.207764 400.185059,343.339172 
	C408.421265,343.830505 416.694946,343.736206 424.954956,343.775391 
	C435.204712,343.823975 445.454895,343.787018 455.704926,343.787018 
	C455.956970,343.374146 456.208984,342.961243 456.461029,342.548370 
	C387.208496,273.657288 317.955963,204.766220 248.306320,135.480087 
	C179.614868,204.719894 111.450531,273.428375 43.286190,342.136841 
	C59.101364,343.258728 74.283821,343.321350 89.465118,343.216705 
	C93.482521,343.188995 97.496376,342.646240 101.720200,341.664185 
M410.019989,106.833237 
	C420.917358,102.007919 429.945923,88.278900 424.968445,71.409515 
	C421.348785,59.141911 408.274994,51.206074 395.290436,53.184395 
	C382.436188,55.142868 374.032288,62.465012 370.879822,74.917267 
	C368.332153,84.980606 371.069366,94.028755 378.912933,101.238625 
	C387.836456,109.441109 398.038147,111.001488 410.019989,106.833237 
z"/>
<path fill="#ffffff" opacity="1.000000" stroke="none" 
	d="
M83.869629,245.163361 
	C67.010445,245.163284 50.631573,245.163284 33.222740,245.163284 
	C41.772343,236.537125 49.408165,228.784607 57.096733,221.084747 
	C78.756546,199.393143 100.487228,177.772018 122.088188,156.022034 
	C131.427032,146.618744 140.409088,136.860962 149.754089,127.463966 
	C156.389908,120.791237 163.517227,114.606903 170.145370,107.926956 
	C178.676300,99.329338 186.568329,90.070351 195.399796,81.806038 
	C204.274139,73.501579 213.334457,65.091736 223.486847,58.549149 
	C232.298218,52.870754 242.991623,52.214493 253.777069,52.930237 
	C264.634766,53.650780 274.283752,56.870586 282.603638,63.444149 
	C289.350525,68.774864 295.472748,74.935440 301.602600,81.000282 
	C318.153687,97.375870 334.560181,113.897636 351.025574,130.359848 
	C377.298370,156.627579 403.579681,182.886810 429.842438,209.164597 
	C440.383514,219.711731 450.889771,230.293732 461.396759,240.874817 
	C462.393402,241.878464 463.282043,242.989349 464.890259,244.807037 
	C462.353149,244.970581 460.793182,245.156509 459.232971,245.158493 
	C443.403229,245.178650 427.572906,245.102921 411.744110,245.225311 
	C408.735260,245.248581 406.788086,244.375092 404.599640,242.124466 
	C397.474640,234.797073 389.770966,228.036133 382.533081,220.813583 
	C376.023010,214.317261 369.916290,207.418655 363.481262,200.844681 
	C355.493134,192.684067 347.349152,184.676041 339.274384,176.600174 
	C317.856049,155.178833 296.439423,133.755707 275.020538,112.334900 
	C270.321808,107.635742 265.670135,102.887863 260.901459,98.260674 
	C253.741028,91.312683 244.051514,91.337189 236.447067,98.777504 
	C222.428360,112.493645 208.600494,126.406990 194.810791,140.354507 
	C177.856461,157.502884 161.003967,174.752136 144.142731,191.992264 
	C131.348206,205.074326 118.665672,218.266388 105.812904,231.290695 
	C101.529770,235.631012 97.120621,239.931747 92.266144,243.581665 
	C90.327126,245.039566 87.029259,244.690155 83.869629,245.163361 
z"/>
<path fill="#ffffff" opacity="1.000000" stroke="none" 
	d="
M101.616028,342.002075 
	C97.496376,342.646240 93.482521,343.188995 89.465118,343.216705 
	C74.283821,343.321350 59.101364,343.258728 43.286190,342.136841 
	C111.450531,273.428375 179.614868,204.719894 248.306320,135.480087 
	C317.955963,204.766220 387.208496,273.657288 456.461029,342.548370 
	C456.208984,342.961243 455.956970,343.374146 455.704926,343.787018 
	C445.454895,343.787018 435.204712,343.823975 424.954956,343.775391 
	C416.694946,343.736206 408.421265,343.830505 400.185059,343.339172 
	C397.981812,343.207764 395.534363,341.527161 393.819183,339.902893 
	C388.433563,334.802765 383.384888,329.348999 378.129150,324.108978 
	C370.053558,316.057404 361.836456,308.146423 353.828247,300.028931 
	C348.064209,294.186218 342.646698,288.001892 336.890869,282.150696 
	C325.553864,270.625793 314.049500,259.265686 302.688232,247.764420 
	C290.994690,235.926788 279.401672,223.989868 267.739136,212.121506 
	C262.836914,207.132797 257.791138,202.282898 252.964188,197.223404 
	C250.594803,194.739883 248.880035,194.106064 246.086502,196.977066 
	C232.755539,210.677887 219.236313,224.196167 205.730865,237.726273 
	C199.209412,244.259628 192.546494,250.651520 185.991516,257.151672 
	C178.238754,264.839630 170.526016,272.568024 162.809067,280.291992 
	C149.281708,293.831665 135.754776,307.371796 122.246788,320.930817 
	C115.383049,327.820465 108.561058,334.751740 101.616028,342.002075 
z"/>
<path fill="#FFFFFF" opacity="1.000000" stroke="none" 
	d="
M409.661224,107.008438 
	C398.038147,111.001488 387.836456,109.441109 378.912933,101.238625 
	C371.069366,94.028755 368.332153,84.980606 370.879822,74.917267 
	C374.032288,62.465012 382.436188,55.142868 395.290436,53.184395 
	C408.274994,51.206074 421.348785,59.141911 424.968445,71.409515 
	C429.945923,88.278900 420.917358,102.007919 409.661224,107.008438 
z"/>
</svg>